<svg xmlns="http://www.w3.org/2000/svg" viewBox="0 0 484.02 484.04"><defs><style>.cls-1{fill:#ffe500;}.cls-2{fill:#027041;}</style></defs><g id="Layer_2" data-name="Layer 2"><g id="Layer_1-2" data-name="Layer 1"><path class="cls-1" d="M403.35,161.34C352.81,211.9,292.56,272.14,242,322.69l-94.3-94.3a94.8,94.8,0,0,1,0-134.08L242,0l40.34,40.34c-26.2,26.18-59.41,59.39-89.4,89.38A44.73,44.73,0,0,0,193,193l49,49c35.95-35.92,85.07-85.08,121-121Z"/><path class="cls-2" d="M484,242c-76.13,76.15-165.72,165.7-242,242h0a57.06,57.06,0,0,1,0-80.69c65.52-65.52,182.74-182.74,201.68-201.66Z"/><path class="cls-2" d="M161.35,403.35h0C110.79,352.8,50.53,292.58,0,242l40.32-40.32c37.66,37.62,80.66,80.64,121,121A57,57,0,0,1,161.35,403.35Z"/></g></g></svg>